<?xml version="1.0" encoding="UTF-8"?>
<svg id="Layer_1" data-name="Layer 1" xmlns="http://www.w3.org/2000/svg" viewBox="0 0 15.72 15.64">
  <defs>
    <style>
      .cls-1 {
        fill: #ffcf01;
      }

      .cls-2 {
        fill: #8560a8;
      }
    </style>
  </defs>
  <g>
    <path class="cls-2" d="m7.98,2.24c-3.29,0-5.95,2.67-5.95,5.95s2.67,5.95,5.95,5.95,5.95-2.67,5.95-5.95-2.67-5.95-5.95-5.95Zm0,11.28c-2.94,0-5.33-2.39-5.33-5.33S5.03,2.87,7.98,2.87s5.33,2.39,5.33,5.33-2.39,5.33-5.33,5.33Z"/>
    <path class="cls-1" d="m14.45,7.6c0-.06-.01-.12-.02-.18.01-.07.44-.26.42-.36-.02-.13-.42-.19-.52-.3-.02-.1-.04-.19-.06-.29,0,0,0-.01,0-.02.07-.11.39-.3.37-.39-.04-.11-.39-.12-.54-.2-.06-.18-.03-.1-.1-.3,0,0,.3-.42.27-.49-.07-.12-.52.01-.57-.08-.05-.09-.1-.18-.15-.26-.03-.05.25-1.8.19-1.87-.08-.09-1.78.06-1.87,0-.08-.06-.16-.12-.24-.17-.05-.03.09-.51,0-.56-.12-.07-.44.22-.58.2-.07-.04-.13-.07-.2-.11-.02,0-.03-.02-.05-.02-.05-.11.03-.51-.06-.55-.11-.05-.36.24-.52.29-.09-.04-.06-.03-.23-.1,0,0-.12-.51-.19-.52-.13-.02-.33.41-.43.39-.1-.02-.19-.04-.29-.06C9.02,1.66,8.07,0,7.97,0c-.1,0-1.24,1.65-1.24,1.65-.16.06-.39.07-.43.08-.1-.1-.28-.37-.36-.35-.11.03-.13.35-.2.51-.11.04-.23.08-.34.12,0,0-.02,0-.02,0-.12-.09-.31-.33-.38-.3-.1.04-.08.34-.11.52,0,0,0,0,0,0-.21.11-.12.05-.32.16,0,0-.46-.25-.51-.2-.09.07.04.42.02.55-.1.07-.2.14-.3.22-.12-.04-1.86-.25-1.91-.19-.07.08.45,1.82.4,1.91-.05.08-.1.17-.15.26-.03.05-.51-.04-.55.05-.06.13.3.47.25.6-.03.07-.05.14-.08.21-.03.09-.53.03-.56.13-.04.14.38.42.35.56,0,.03-.01.05-.02.08-.03.09-.02.06-.07.24,0,0-.49.18-.49.25,0,.12.35.26.42.36-.01.12-.02.24-.03.35C1.25,7.82-.01,9.17,0,9.26c.02.13,1.62,1.02,1.73,1.08,0,.01,0,.02.01.03,0,.01,0,.02.01.04.03.09.07.18.1.26-.04.09-.35.36-.31.44.06.13.55.06.62.19.03.07.07.13.11.19.05.08-.31.43-.26.52.08.12.57-.03.65.08.04.05.07.09.11.14-.02.05-.18.49-.14.54.08.08.39-.08.52-.08.09.09.18.18.27.27-.02.12-.18,2.1-.11,2.15.1.07,2.16-.8,2.25-.76.09.03.19.07.28.1.06.02.05.52.15.55.14.04.4-.39.55-.36.07.02.14.03.22.04.1.02.13.52.23.54.12.02.3-.35.43-.43.17.02.1.02.3.04,0,0,.25.46.32.45.13-.01.22-.48.32-.49.1,0,.2-.01.29-.02.06,0,.25.45.35.44.13-.02.2-.43.32-.53.1-.02.19-.04.29-.06.11.06,1.7,1.06,1.77,1.03.11-.07.43-2.07.55-2.16.06-.04.12-.09.17-.14.07-.06.47.24.54.18.11-.1-.12-.56-.02-.66.1-.1.19-.21.28-.31.15.02.42.06.45.02.05-.07-.07-.26-.14-.4.1-.13.19-.27.27-.4.15.02.38.06.42,0,.05-.09-.09-.28-.17-.44.07-.14.14-.28.2-.42.16,0,.4.02.43-.04.04-.09-.15-.28-.25-.43,0-.02.01-.04.02-.06.02-.05.03-.05.08-.19,0,0,1.5-1,1.51-1.1.01-.13-1.26-1.34-1.27-1.48Zm-10.3,5.07s-.02-.02-.04-.03c0,0-.01-.01-.02-.02-.04-.04-.08-.07-.12-.11-.03-.03-.06-.06-.09-.09-.02-.02-.05-.05-.07-.07,0,0-.01-.01-.02-.02-.04-.05-.09-.09-.13-.14-.02-.03-.05-.05-.07-.08-.04-.05-.08-.09-.12-.14-.03-.03-.05-.07-.08-.1-.03-.03-.05-.07-.08-.1-.04-.05-.08-.1-.11-.15,0,0-.01-.02-.02-.02-.58-.82-.95-1.78-1.07-2.79-.02-.16-.03-.33-.03-.5,0-.29,0-.58.04-.86.19-1.37.84-2.68,1.93-3.67,1.6-1.44,3.75-1.85,5.66-1.28.02,0,.04.01.06.02.01,0,.03,0,.04.01.4.13.79.31,1.16.52.55.34,1.04.77,1.47,1.29,1.17,1.52,1.6,3.58.97,5.56-.66,2.07-2.32,3.53-4.26,4.01-.9.21-1.85.2-2.75-.03-.84-.24-1.61-.66-2.26-1.22Z"/>
  </g>
  <path class="cls-1" d="m10.31,5.47v5.17h-.37v-4.16l-2.08,2.48-2.08-2.48v4.16h-.37v-5.17l2.46,2.92,2.45-2.92Z"/>
</svg>