<?xml version="1.0" encoding="UTF-8"?>
<svg id="Layer_1" data-name="Layer 1" xmlns="http://www.w3.org/2000/svg" viewBox="0 0 15.21 15.14">
  <defs>
    <style>
      .cls-1 {
        fill: #ffcf01;
      }

      .cls-2 {
        fill: #231f20;
      }
    </style>
  </defs>
  <g>
    <path class="cls-2" d="m7.72,2.17c-3.18,0-5.76,2.58-5.76,5.76s2.58,5.76,5.76,5.76,5.76-2.58,5.76-5.76-2.58-5.76-5.76-5.76Zm0,10.92c-2.85,0-5.16-2.31-5.16-5.16S4.87,2.78,7.72,2.78s5.16,2.31,5.16,5.16-2.31,5.16-5.16,5.16Z"/>
    <path class="cls-1" d="m13.99,7.35c0-.06-.01-.12-.02-.18.01-.06.43-.25.41-.35-.02-.12-.4-.18-.51-.29-.02-.09-.04-.19-.06-.28,0,0,0-.01,0-.02.07-.11.38-.29.36-.37-.03-.11-.37-.12-.52-.19-.06-.17-.03-.1-.09-.29,0,0,.29-.41.26-.47-.06-.11-.51,0-.56-.08-.05-.08-.09-.17-.14-.25-.03-.05.24-1.74.18-1.81-.08-.09-1.73.06-1.81,0-.08-.06-.15-.11-.23-.17-.05-.03.09-.5,0-.54-.11-.07-.42.21-.57.2-.06-.04-.13-.07-.19-.1-.02,0-.03-.02-.05-.02-.05-.1.02-.5-.05-.53-.11-.05-.35.23-.5.28-.09-.04-.06-.03-.22-.1,0,0-.12-.49-.18-.5-.13-.02-.32.4-.42.38-.09-.02-.19-.04-.28-.05C8.73,1.6,7.81,0,7.71,0c-.1,0-1.2,1.59-1.2,1.59-.16.06-.38.07-.41.08-.09-.09-.27-.36-.34-.34-.1.03-.13.34-.19.49-.11.04-.22.08-.33.12,0,0-.02,0-.02,0-.12-.09-.3-.32-.37-.29-.09.04-.08.33-.11.5,0,0,0,0,0,0-.21.1-.12.05-.31.15,0,0-.44-.24-.49-.2-.09.07.04.4.02.53-.1.07-.2.14-.29.21-.12-.04-1.8-.24-1.85-.19-.07.08.44,1.76.39,1.85-.05.08-.1.17-.14.25-.03.05-.5-.04-.54.05-.06.13.29.45.24.58-.03.07-.05.13-.08.2-.03.09-.51.03-.54.12-.04.13.37.41.33.54,0,.03-.01.05-.02.08-.03.09-.02.06-.07.23,0,0-.47.17-.48.24,0,.12.34.25.41.35-.01.11-.02.23-.02.34C1.21,7.56-.01,8.88,0,8.96c.02.13,1.57.99,1.68,1.05,0,.01,0,.02.01.03,0,.01,0,.02.01.03.03.09.07.17.1.25-.04.09-.34.35-.3.43.06.13.53.06.6.18.03.06.07.13.1.19.05.08-.3.42-.25.5.07.12.55-.03.63.08.03.05.07.09.1.14-.02.05-.18.47-.13.52.08.08.37-.07.51-.08.08.09.17.18.26.26-.02.12-.17,2.04-.1,2.08.09.06,2.09-.77,2.18-.74.09.03.18.07.27.1.06.02.05.51.14.53.14.04.39-.38.53-.35.07.02.14.03.21.04.09.02.12.51.22.52.12.02.29-.34.42-.42.16.02.09.02.29.04,0,0,.24.44.31.44.13-.01.21-.47.31-.47.09,0,.19-.01.28-.02.06,0,.25.44.34.42.13-.02.19-.42.3-.51.09-.02.19-.04.28-.06.1.06,1.65,1.03,1.71.99.11-.06.42-2,.53-2.09.06-.04.11-.09.17-.13.07-.06.46.23.53.17.1-.09-.11-.54-.02-.64.1-.1.19-.2.27-.3.14.02.41.06.44.02.05-.07-.07-.26-.14-.39.09-.13.18-.26.26-.39.15.02.37.06.4,0,.05-.08-.09-.27-.16-.43.07-.13.13-.27.19-.41.15,0,.39.02.42-.04.04-.09-.14-.27-.24-.41,0-.02.01-.04.02-.05.02-.05.02-.05.08-.19,0,0,1.46-.97,1.47-1.06.01-.13-1.22-1.3-1.23-1.44Zm-9.97,4.91s-.02-.02-.04-.03c0,0-.01-.01-.02-.02-.04-.04-.08-.07-.12-.11-.03-.03-.06-.06-.09-.09-.02-.02-.05-.05-.07-.07,0,0,0,0-.01-.01-.04-.04-.08-.09-.13-.14-.02-.03-.05-.05-.07-.08-.04-.04-.08-.09-.11-.14-.03-.03-.05-.06-.08-.1-.03-.03-.05-.06-.07-.1-.04-.05-.07-.1-.11-.14,0,0,0-.01-.01-.02-.56-.8-.92-1.73-1.03-2.7-.02-.16-.03-.32-.03-.48,0-.28,0-.56.04-.83.18-1.32.81-2.59,1.87-3.55,1.55-1.39,3.63-1.79,5.48-1.23.02,0,.04.01.06.02.01,0,.03,0,.04.01.39.13.76.3,1.12.5.53.33,1.01.75,1.42,1.25,1.13,1.47,1.55,3.47.94,5.38-.64,2-2.24,3.41-4.12,3.88-.87.2-1.79.19-2.67-.03-.81-.23-1.56-.64-2.18-1.19Z"/>
  </g>
  <path class="cls-2" d="m7.46,10.85v-5.45h-2.02v-.44h4.45v.44h-1.99v5.45h-.44Z"/>
</svg>