<?xml version="1.0" encoding="UTF-8"?>
<svg xmlns="http://www.w3.org/2000/svg" xmlns:xlink="http://www.w3.org/1999/xlink" width="151px" height="150px" viewBox="0 0 4 4" version="1.1">
<g id="surface1">
<path style=" stroke:none;fill-rule:nonzero;fill:rgb(52.156863%,37.647059%,65.882353%);fill-opacity:1;" d="M 2.027344 0.582031 C 1.191406 0.582031 0.511719 1.261719 0.511719 2.097656 C 0.511719 2.9375 1.191406 3.613281 2.027344 3.613281 C 2.867188 3.613281 3.546875 2.9375 3.546875 2.097656 C 3.546875 1.261719 2.867188 0.582031 2.027344 0.582031 Z M 2.027344 3.453125 C 1.277344 3.453125 0.671875 2.847656 0.671875 2.097656 C 0.671875 1.347656 1.277344 0.742188 2.027344 0.742188 C 2.777344 0.742188 3.386719 1.347656 3.386719 2.097656 C 3.386719 2.847656 2.777344 3.453125 2.027344 3.453125 Z M 2.027344 3.453125 "/>
<path style=" stroke:none;fill-rule:nonzero;fill:rgb(100%,81.176471%,0.392157%);fill-opacity:1;" d="M 3.679688 1.945312 C 3.679688 1.929688 3.675781 1.914062 3.671875 1.894531 C 3.675781 1.878906 3.785156 1.828125 3.777344 1.804688 C 3.773438 1.773438 3.671875 1.757812 3.644531 1.730469 C 3.640625 1.703125 3.636719 1.679688 3.628906 1.65625 C 3.628906 1.65625 3.628906 1.652344 3.628906 1.652344 C 3.648438 1.621094 3.730469 1.574219 3.722656 1.554688 C 3.714844 1.523438 3.625 1.519531 3.585938 1.503906 C 3.570312 1.457031 3.578125 1.476562 3.5625 1.425781 C 3.5625 1.425781 3.640625 1.316406 3.632812 1.304688 C 3.617188 1.273438 3.5 1.304688 3.488281 1.28125 C 3.472656 1.261719 3.460938 1.238281 3.449219 1.214844 C 3.441406 1.203125 3.511719 0.757812 3.496094 0.738281 C 3.476562 0.714844 3.042969 0.753906 3.019531 0.738281 C 3 0.726562 2.980469 0.710938 2.960938 0.695312 C 2.945312 0.6875 2.980469 0.566406 2.960938 0.554688 C 2.929688 0.539062 2.847656 0.609375 2.8125 0.605469 C 2.796875 0.59375 2.777344 0.585938 2.761719 0.578125 C 2.753906 0.578125 2.753906 0.570312 2.746094 0.570312 C 2.734375 0.546875 2.753906 0.441406 2.734375 0.429688 C 2.703125 0.417969 2.640625 0.492188 2.605469 0.503906 C 2.578125 0.496094 2.585938 0.496094 2.546875 0.480469 C 2.546875 0.480469 2.511719 0.351562 2.496094 0.347656 C 2.464844 0.34375 2.414062 0.453125 2.386719 0.445312 C 2.363281 0.441406 2.335938 0.4375 2.3125 0.433594 C 2.296875 0.429688 2.054688 0.0117188 2.027344 0.0117188 C 2.003906 0.0117188 1.710938 0.429688 1.710938 0.429688 C 1.671875 0.445312 1.613281 0.449219 1.605469 0.449219 C 1.578125 0.425781 1.53125 0.355469 1.511719 0.363281 C 1.488281 0.371094 1.480469 0.449219 1.460938 0.488281 C 1.433594 0.5 1.402344 0.507812 1.375 0.519531 C 1.375 0.519531 1.371094 0.519531 1.371094 0.519531 C 1.335938 0.496094 1.289062 0.4375 1.269531 0.445312 C 1.246094 0.457031 1.253906 0.535156 1.242188 0.578125 C 1.1875 0.605469 1.210938 0.59375 1.160156 0.621094 C 1.160156 0.621094 1.042969 0.554688 1.027344 0.570312 C 1.003906 0.585938 1.039062 0.675781 1.035156 0.707031 C 1.007812 0.726562 0.984375 0.746094 0.957031 0.761719 C 0.925781 0.753906 0.484375 0.699219 0.472656 0.714844 C 0.453125 0.738281 0.585938 1.179688 0.570312 1.199219 C 0.558594 1.222656 0.546875 1.242188 0.535156 1.265625 C 0.527344 1.277344 0.402344 1.253906 0.394531 1.277344 C 0.378906 1.3125 0.472656 1.394531 0.457031 1.429688 C 0.449219 1.449219 0.445312 1.464844 0.4375 1.484375 C 0.429688 1.507812 0.304688 1.492188 0.296875 1.515625 C 0.285156 1.550781 0.390625 1.621094 0.382812 1.660156 C 0.382812 1.667969 0.378906 1.671875 0.378906 1.679688 C 0.371094 1.703125 0.371094 1.695312 0.359375 1.742188 C 0.359375 1.742188 0.234375 1.789062 0.234375 1.804688 C 0.234375 1.835938 0.320312 1.871094 0.339844 1.894531 C 0.335938 1.925781 0.335938 1.957031 0.335938 1.988281 C 0.320312 2 -0.00390625 2.347656 0 2.367188 C 0.00390625 2.402344 0.414062 2.628906 0.441406 2.640625 C 0.441406 2.644531 0.441406 2.644531 0.445312 2.648438 C 0.445312 2.652344 0.445312 2.652344 0.445312 2.65625 C 0.453125 2.679688 0.460938 2.703125 0.472656 2.722656 C 0.460938 2.746094 0.382812 2.8125 0.394531 2.835938 C 0.410156 2.871094 0.535156 2.847656 0.550781 2.882812 C 0.558594 2.898438 0.570312 2.914062 0.578125 2.933594 C 0.589844 2.953125 0.496094 3.046875 0.511719 3.066406 C 0.527344 3.097656 0.652344 3.058594 0.675781 3.085938 C 0.683594 3.101562 0.695312 3.113281 0.703125 3.121094 C 0.695312 3.136719 0.652344 3.246094 0.667969 3.257812 C 0.6875 3.277344 0.765625 3.238281 0.800781 3.238281 C 0.820312 3.261719 0.847656 3.285156 0.871094 3.304688 C 0.863281 3.335938 0.824219 3.839844 0.84375 3.855469 C 0.867188 3.871094 1.390625 3.652344 1.414062 3.660156 C 1.4375 3.667969 1.460938 3.679688 1.488281 3.6875 C 1.5 3.691406 1.5 3.820312 1.523438 3.824219 C 1.558594 3.835938 1.625 3.726562 1.664062 3.734375 C 1.679688 3.738281 1.699219 3.742188 1.71875 3.746094 C 1.742188 3.75 1.75 3.878906 1.777344 3.878906 C 1.808594 3.886719 1.851562 3.792969 1.886719 3.769531 C 1.929688 3.777344 1.910156 3.777344 1.960938 3.78125 C 1.960938 3.78125 2.027344 3.898438 2.042969 3.894531 C 2.078125 3.894531 2.097656 3.773438 2.121094 3.769531 C 2.144531 3.769531 2.171875 3.769531 2.195312 3.765625 C 2.210938 3.765625 2.261719 3.878906 2.289062 3.878906 C 2.320312 3.871094 2.335938 3.769531 2.367188 3.746094 C 2.390625 3.738281 2.414062 3.734375 2.441406 3.730469 C 2.46875 3.746094 2.875 3.996094 2.890625 3.988281 C 2.921875 3.972656 3 3.460938 3.027344 3.441406 C 3.046875 3.429688 3.058594 3.417969 3.074219 3.40625 C 3.09375 3.390625 3.195312 3.46875 3.210938 3.453125 C 3.238281 3.429688 3.183594 3.308594 3.207031 3.285156 C 3.230469 3.257812 3.253906 3.230469 3.277344 3.203125 C 3.316406 3.210938 3.386719 3.222656 3.394531 3.210938 C 3.40625 3.191406 3.375 3.144531 3.355469 3.105469 C 3.378906 3.070312 3.402344 3.039062 3.425781 3.003906 C 3.464844 3.007812 3.523438 3.019531 3.53125 3.003906 C 3.546875 2.980469 3.507812 2.929688 3.488281 2.890625 C 3.507812 2.855469 3.523438 2.820312 3.539062 2.785156 C 3.578125 2.785156 3.644531 2.789062 3.648438 2.773438 C 3.660156 2.75 3.613281 2.703125 3.585938 2.664062 C 3.585938 2.660156 3.585938 2.652344 3.589844 2.652344 C 3.597656 2.636719 3.597656 2.636719 3.613281 2.601562 C 3.613281 2.601562 3.996094 2.347656 3.996094 2.320312 C 4 2.289062 3.679688 1.980469 3.675781 1.945312 Z M 1.054688 3.234375 C 1.054688 3.234375 1.050781 3.230469 1.046875 3.226562 C 1.046875 3.226562 1.042969 3.222656 1.039062 3.222656 C 1.027344 3.210938 1.019531 3.203125 1.007812 3.191406 C 1 3.183594 0.992188 3.175781 0.984375 3.167969 C 0.980469 3.164062 0.972656 3.15625 0.964844 3.148438 C 0.964844 3.148438 0.964844 3.148438 0.960938 3.144531 C 0.953125 3.136719 0.941406 3.121094 0.929688 3.113281 C 0.921875 3.105469 0.914062 3.097656 0.910156 3.089844 C 0.898438 3.078125 0.886719 3.066406 0.878906 3.054688 C 0.871094 3.046875 0.867188 3.039062 0.859375 3.03125 C 0.851562 3.023438 0.847656 3.015625 0.839844 3.003906 C 0.828125 2.992188 0.820312 2.980469 0.8125 2.96875 C 0.8125 2.96875 0.8125 2.964844 0.808594 2.960938 C 0.664062 2.753906 0.570312 2.507812 0.539062 2.253906 C 0.53125 2.210938 0.527344 2.167969 0.527344 2.125 C 0.527344 2.050781 0.527344 1.980469 0.539062 1.90625 C 0.585938 1.558594 0.753906 1.226562 1.03125 0.972656 C 1.4375 0.605469 1.988281 0.503906 2.472656 0.648438 C 2.480469 0.648438 2.484375 0.652344 2.488281 0.652344 C 2.492188 0.652344 2.496094 0.652344 2.5 0.65625 C 2.605469 0.691406 2.703125 0.734375 2.796875 0.789062 C 2.933594 0.875 3.0625 0.988281 3.167969 1.117188 C 3.464844 1.503906 3.574219 2.027344 3.414062 2.53125 C 3.246094 3.058594 2.828125 3.429688 2.332031 3.550781 C 2.105469 3.605469 1.863281 3.601562 1.628906 3.542969 C 1.414062 3.480469 1.222656 3.375 1.054688 3.230469 Z M 1.054688 3.234375 "/>
<path style=" stroke:none;fill-rule:nonzero;fill:rgb(52.156863%,37.647059%,65.882353%);fill-opacity:1;" d="M 2.3125 1.386719 C 2.714844 1.554688 2.863281 1.996094 2.710938 2.351562 C 2.542969 2.753906 2.105469 2.902344 1.746094 2.753906 C 1.34375 2.582031 1.195312 2.144531 1.347656 1.789062 C 1.515625 1.382812 1.953125 1.238281 2.3125 1.386719 Z M 2.269531 1.480469 C 1.972656 1.355469 1.59375 1.472656 1.445312 1.828125 C 1.320312 2.125 1.433594 2.507812 1.789062 2.65625 C 2.085938 2.78125 2.46875 2.667969 2.613281 2.316406 C 2.75 1.996094 2.609375 1.625 2.269531 1.484375 Z M 2.269531 1.480469 "/>
</g>
</svg>
