<?xml version="1.0" encoding="UTF-8"?>
<svg xmlns="http://www.w3.org/2000/svg" xmlns:xlink="http://www.w3.org/1999/xlink" width="16px" height="16px" viewBox="0 0 16 16" version="1.1">
<g id="surface1">
<path style=" stroke:none;fill-rule:nonzero;fill:rgb(0%,0%,0%);fill-opacity:1;" d="M 7.648438 1.558594 C 7.566406 1.886719 7.324219 1.976562 7.109375 1.738281 C 6.945312 1.558594 6.933594 1.558594 6.878906 1.796875 C 6.824219 2.078125 6.507812 2.238281 6.359375 2.058594 C 6.203125 1.863281 6.109375 1.910156 6.109375 2.148438 C 6.109375 2.433594 5.804688 2.558594 5.546875 2.375 C 5.359375 2.261719 5.351562 2.273438 5.40625 2.546875 C 5.480469 2.921875 5.195312 3.148438 4.898438 2.941406 C 4.722656 2.828125 4.714844 2.839844 4.769531 3.066406 C 4.84375 3.375 4.675781 3.636719 4.390625 3.636719 C 4.214844 3.636719 4.175781 3.691406 4.195312 3.886719 C 4.203125 4.078125 4.15625 4.160156 4 4.183594 C 3.84375 4.214844 3.804688 4.273438 3.84375 4.421875 C 3.925781 4.738281 3.796875 5 3.554688 5 C 3.316406 5 3.277344 5.113281 3.433594 5.308594 C 3.609375 5.523438 3.445312 5.910156 3.175781 5.910156 C 2.945312 5.910156 2.945312 5.921875 3.09375 6.125 C 3.296875 6.410156 3.25 6.714844 2.980469 6.886719 C 2.796875 7 2.785156 7.035156 2.917969 7.160156 C 3.128906 7.375 3.09375 7.808594 2.851562 7.886719 L 2.640625 7.953125 L 2.851562 8.125 C 3.082031 8.328125 3.121094 8.726562 2.917969 8.816406 C 2.722656 8.910156 2.742188 9.058594 2.953125 9.148438 C 3.195312 9.238281 3.269531 9.660156 3.082031 9.910156 C 2.953125 10.089844 2.953125 10.113281 3.183594 10.214844 C 3.425781 10.339844 3.519531 10.714844 3.332031 10.851562 C 3.195312 10.953125 3.316406 11.136719 3.519531 11.136719 C 3.714844 11.136719 3.84375 11.464844 3.703125 11.636719 C 3.546875 11.828125 3.59375 11.910156 3.871094 11.953125 C 4.082031 11.988281 4.121094 12.035156 4.101562 12.308594 C 4.082031 12.566406 4.109375 12.613281 4.230469 12.566406 C 4.445312 12.464844 4.714844 12.808594 4.648438 13.089844 C 4.609375 13.296875 4.628906 13.316406 4.832031 13.261719 C 5.109375 13.171875 5.324219 13.410156 5.25 13.738281 C 5.214844 13.933594 5.242188 13.941406 5.40625 13.863281 C 5.667969 13.75 5.925781 13.921875 5.925781 14.203125 C 5.925781 14.464844 5.964844 14.476562 6.203125 14.316406 C 6.453125 14.160156 6.667969 14.296875 6.667969 14.625 C 6.667969 14.886719 6.675781 14.886719 6.871094 14.726562 C 7.175781 14.464844 7.378906 14.5 7.445312 14.839844 L 7.507812 15.148438 L 7.730469 14.886719 L 7.953125 14.636719 L 8.183594 14.921875 C 8.398438 15.183594 8.425781 15.191406 8.472656 15 C 8.554688 14.691406 8.871094 14.636719 9.019531 14.910156 C 9.148438 15.136719 9.148438 15.136719 9.25 14.910156 C 9.40625 14.546875 9.648438 14.5 9.832031 14.796875 C 9.964844 15 10 15.023438 10 14.863281 C 10 14.601562 10.269531 14.296875 10.425781 14.363281 C 10.5 14.398438 10.621094 14.464844 10.695312 14.5 C 10.796875 14.558594 10.832031 14.488281 10.832031 14.273438 C 10.832031 13.941406 10.972656 13.875 11.316406 14.035156 C 11.433594 14.089844 11.472656 14.035156 11.5 13.785156 C 11.527344 13.5 11.566406 13.464844 11.832031 13.476562 C 12.09375 13.5 12.128906 13.464844 12.128906 13.191406 C 12.128906 12.839844 12.277344 12.613281 12.519531 12.613281 C 12.621094 12.613281 12.683594 12.546875 12.675781 12.464844 C 12.640625 12.214844 12.796875 11.933594 12.972656 11.933594 C 13.109375 11.933594 13.140625 11.875 13.09375 11.660156 C 13.046875 11.410156 13.242188 11.023438 13.417969 11.023438 C 13.464844 11.023438 13.472656 10.898438 13.445312 10.738281 C 13.417969 10.511719 13.453125 10.433594 13.667969 10.328125 C 13.917969 10.214844 13.925781 10.191406 13.777344 10.066406 C 13.527344 9.839844 13.566406 9.464844 13.851562 9.386719 L 14.101562 9.308594 L 13.898438 9.078125 C 13.648438 8.796875 13.65625 8.703125 13.917969 8.476562 L 14.121094 8.296875 L 13.917969 8.113281 C 13.648438 7.875 13.648438 7.660156 13.90625 7.488281 L 14.109375 7.351562 L 13.859375 7.191406 C 13.574219 7.011719 13.535156 6.660156 13.777344 6.488281 C 13.917969 6.398438 13.90625 6.363281 13.683594 6.261719 C 13.425781 6.136719 13.332031 5.773438 13.519531 5.625 C 13.695312 5.5 13.609375 5.339844 13.378906 5.339844 C 13.101562 5.339844 13 5.113281 13.148438 4.785156 C 13.230469 4.566406 13.222656 4.546875 13.027344 4.546875 C 12.714844 4.546875 12.554688 4.285156 12.675781 3.988281 C 12.769531 3.785156 12.75 3.761719 12.480469 3.726562 C 12.222656 3.703125 12.167969 3.636719 12.148438 3.375 C 12.121094 3.113281 12.082031 3.066406 11.933594 3.125 C 11.695312 3.226562 11.464844 2.976562 11.527344 2.714844 C 11.574219 2.535156 11.535156 2.511719 11.230469 2.535156 C 10.90625 2.558594 10.878906 2.535156 10.851562 2.25 C 10.824219 1.953125 10.804688 1.941406 10.621094 2.101562 C 10.378906 2.296875 10.242188 2.203125 10.140625 1.828125 C 10.074219 1.578125 10.054688 1.566406 9.953125 1.738281 C 9.777344 2.046875 9.472656 1.976562 9.378906 1.625 L 9.285156 1.308594 L 9.175781 1.566406 C 9.035156 1.886719 8.769531 1.886719 8.59375 1.566406 L 8.453125 1.316406 L 8.34375 1.566406 C 8.203125 1.886719 8.019531 1.886719 7.851562 1.566406 L 7.714844 1.308594 Z M 9.621094 2.558594 C 11.316406 3.046875 12.675781 4.75 13.054688 6.828125 C 13.222656 7.75 13.140625 9.441406 12.878906 10.25 C 12.304688 12.078125 11.035156 13.433594 9.417969 13.941406 C 7.445312 14.558594 5.066406 13.226562 4.167969 10.988281 C 3.195312 8.566406 3.527344 6 5.054688 4.148438 C 6.257812 2.683594 7.972656 2.078125 9.621094 2.558594 Z M 9.621094 2.558594 "/>
<path style=" stroke:none;fill-rule:nonzero;fill:rgb(0%,0%,0%);fill-opacity:1;" d="M 7.777344 3.601562 C 7.269531 3.933594 7.007812 4.488281 7.054688 5.183594 C 7.109375 5.933594 7.378906 6.410156 7.917969 6.660156 C 8.324219 6.839844 8.332031 6.863281 8.332031 7.339844 L 8.332031 7.839844 L 7.59375 7.839844 L 7.59375 8.296875 C 7.59375 8.726562 7.574219 8.75 7.316406 8.75 C 7.054688 8.75 7.035156 8.726562 7.035156 8.296875 L 7.035156 7.839844 L 5.464844 7.839844 L 5.464844 9.773438 L 6.109375 9.773438 L 6.109375 10.363281 C 6.109375 10.886719 6.074219 11 5.785156 11.363281 L 5.464844 11.773438 L 5.832031 12.214844 L 6.203125 12.660156 L 6.507812 12.296875 C 6.769531 11.988281 6.878906 11.933594 7.269531 11.933594 C 7.640625 11.941406 7.796875 12 8.046875 12.273438 L 8.359375 12.601562 L 8.621094 12.375 C 8.769531 12.25 8.90625 12.101562 8.933594 12.046875 C 8.972656 11.976562 9.214844 11.933594 9.472656 11.933594 C 9.871094 11.941406 10.007812 12 10.269531 12.273438 L 10.582031 12.601562 L 10.832031 12.386719 C 11.34375 11.941406 11.359375 11.851562 10.992188 11.386719 C 10.683594 11 10.648438 10.898438 10.648438 10.363281 L 10.648438 9.773438 L 11.390625 9.773438 L 11.390625 7.839844 L 9.816406 7.839844 L 9.816406 8.296875 C 9.816406 8.738281 9.804688 8.75 9.492188 8.75 C 9.175781 8.75 9.167969 8.738281 9.167969 8.308594 C 9.167969 7.863281 9.15625 7.851562 8.824219 7.816406 C 8.492188 7.785156 8.472656 7.761719 8.445312 7.351562 C 8.417969 6.953125 8.433594 6.921875 8.824219 6.714844 C 9.316406 6.453125 9.695312 5.933594 9.777344 5.386719 C 9.859375 4.839844 9.601562 4.046875 9.242188 3.738281 C 8.851562 3.398438 8.195312 3.339844 7.777344 3.601562 Z M 7.59375 9.375 C 7.59375 9.761719 7.601562 9.773438 7.964844 9.773438 L 8.332031 9.773438 L 8.332031 10.363281 C 8.332031 10.875 8.296875 11.011719 8.035156 11.328125 C 7.785156 11.648438 7.675781 11.703125 7.324219 11.703125 C 6.980469 11.703125 6.851562 11.636719 6.601562 11.339844 C 6.332031 11.023438 6.296875 10.910156 6.296875 10.375 L 6.296875 9.773438 L 6.667969 9.773438 C 7.027344 9.773438 7.035156 9.761719 7.035156 9.375 C 7.035156 9.011719 7.054688 8.976562 7.316406 8.976562 C 7.574219 8.976562 7.59375 9.011719 7.59375 9.375 Z M 9.816406 9.375 C 9.816406 9.75 9.832031 9.773438 10.140625 9.773438 L 10.464844 9.773438 L 10.464844 10.421875 C 10.464844 10.964844 10.425781 11.113281 10.214844 11.386719 C 10.007812 11.660156 9.890625 11.703125 9.492188 11.703125 C 8.832031 11.703125 8.535156 11.339844 8.5 10.453125 L 8.472656 9.828125 L 8.824219 9.796875 C 9.148438 9.761719 9.167969 9.738281 9.167969 9.363281 C 9.167969 9 9.183594 8.976562 9.492188 8.976562 C 9.796875 8.976562 9.816406 9 9.816406 9.375 Z M 9.816406 9.375 "/>
</g>
</svg>
