<?xml version="1.0" encoding="UTF-8"?>
<svg id="Layer_1" data-name="Layer 1" xmlns="http://www.w3.org/2000/svg" viewBox="0 0 15.58 15.5">
  <defs>
    <style>
      .cls-1 {
        fill: #ffcf01;
      }

      .cls-2 {
        fill: #808285;
      }
    </style>
  </defs>
  <g>
    <path class="cls-2" d="m7.91,2.22c-3.26,0-5.9,2.64-5.9,5.9s2.64,5.9,5.9,5.9,5.9-2.64,5.9-5.9-2.64-5.9-5.9-5.9Zm0,11.18c-2.92,0-5.28-2.36-5.28-5.28S4.99,2.84,7.91,2.84s5.28,2.36,5.28,5.28-2.36,5.28-5.28,5.28Z"/>
    <path class="cls-1" d="m14.33,7.53c0-.06-.01-.12-.02-.18.01-.06.44-.26.42-.35-.02-.13-.41-.19-.52-.3-.02-.09-.04-.19-.06-.28,0,0,0-.01,0-.02.07-.11.39-.3.36-.38-.03-.11-.38-.12-.53-.19-.06-.17-.03-.1-.1-.3,0,0,.3-.42.26-.48-.07-.12-.52,0-.57-.08-.05-.08-.09-.17-.15-.26-.03-.05.25-1.79.19-1.85-.08-.09-1.77.06-1.85,0-.08-.06-.16-.12-.24-.17-.05-.03.09-.51,0-.56-.11-.07-.43.21-.58.2-.07-.04-.13-.07-.2-.11-.02,0-.03-.02-.05-.02-.05-.11.02-.51-.06-.54-.11-.05-.36.24-.51.29-.09-.04-.06-.03-.23-.1,0,0-.12-.5-.19-.52-.13-.02-.33.41-.43.39-.09-.02-.19-.04-.29-.06C8.95,1.64,8,0,7.9,0c-.1,0-1.23,1.63-1.23,1.63-.16.06-.39.07-.42.08-.1-.1-.28-.37-.35-.35-.11.03-.13.35-.2.5-.11.04-.23.08-.34.12,0,0-.02,0-.02,0-.12-.09-.31-.33-.38-.29-.1.04-.08.34-.11.51,0,0,0,0,0,0-.21.11-.12.05-.32.15,0,0-.45-.24-.51-.2-.09.07.04.41.02.54-.1.07-.2.14-.3.22-.12-.04-1.84-.25-1.89-.19-.07.08.45,1.8.4,1.89-.05.08-.1.17-.15.26-.03.05-.51-.04-.55.05-.06.13.3.46.25.6-.03.07-.05.14-.08.21-.03.09-.52.03-.55.13-.04.13.38.42.34.55,0,.03-.01.05-.02.08-.03.09-.02.06-.07.24,0,0-.48.18-.49.25,0,.12.35.26.42.36-.01.12-.02.23-.03.35C1.24,7.75-.01,9.09,0,9.18c.02.13,1.6,1.01,1.72,1.07,0,.01,0,.02.01.03,0,.01,0,.02.01.04.03.09.07.17.1.26-.04.09-.35.36-.31.44.06.13.54.06.61.19.03.06.07.13.11.19.05.08-.31.43-.25.51.08.12.56-.03.64.08.03.05.07.09.11.14-.02.05-.18.49-.14.53.08.08.38-.08.52-.08.09.09.17.18.27.27-.02.12-.18,2.09-.11,2.13.1.06,2.14-.79,2.23-.76.09.03.18.07.28.1.06.02.05.52.14.54.14.04.4-.39.54-.36.07.02.14.03.22.04.09.02.13.52.22.53.12.02.29-.34.43-.43.17.02.09.02.3.04,0,0,.25.45.32.45.13-.01.21-.48.31-.49.1,0,.2-.01.29-.02.06,0,.25.45.35.43.13-.02.19-.43.31-.52.1-.02.19-.04.29-.06.11.06,1.69,1.05,1.75,1.02.11-.07.43-2.05.54-2.14.06-.04.12-.09.17-.14.07-.06.47.24.54.17.1-.09-.11-.55-.02-.65.1-.1.19-.2.28-.31.15.02.42.06.45.02.05-.07-.07-.26-.14-.4.1-.13.18-.26.27-.4.15.02.38.06.41,0,.05-.09-.09-.28-.16-.44.07-.14.14-.28.2-.42.16,0,.4.02.43-.04.04-.09-.15-.28-.25-.42,0-.02.01-.04.02-.05.02-.05.02-.05.08-.19,0,0,1.49-.99,1.5-1.09.01-.13-1.25-1.33-1.26-1.47Zm-10.21,5.03s-.02-.02-.04-.03c0,0-.01-.01-.02-.02-.04-.04-.08-.07-.12-.11-.03-.03-.06-.06-.09-.09-.02-.02-.05-.05-.07-.07,0,0-.01-.01-.02-.02-.04-.05-.09-.09-.13-.14-.02-.03-.05-.05-.07-.08-.04-.05-.08-.09-.12-.14-.03-.03-.05-.06-.08-.1-.03-.03-.05-.07-.08-.1-.04-.05-.07-.1-.11-.15,0,0-.01-.01-.02-.02-.57-.82-.94-1.77-1.06-2.76-.02-.16-.03-.33-.03-.49,0-.29,0-.57.04-.85.19-1.35.83-2.65,1.92-3.63,1.58-1.43,3.72-1.83,5.61-1.26.02,0,.04.01.06.02.01,0,.03,0,.04.01.4.13.78.3,1.15.52.54.33,1.03.76,1.45,1.28,1.16,1.51,1.59,3.55.97,5.51-.65,2.05-2.29,3.5-4.22,3.97-.9.21-1.83.2-2.73-.03-.83-.24-1.6-.66-2.24-1.21Z"/>
  </g>
  <path class="cls-2" d="m7.56,11.32v-6.39h.47v6.39h-.47Z"/>
</svg>