<?xml version="1.0" encoding="UTF-8"?>
<svg id="Layer_1" data-name="Layer 1" xmlns="http://www.w3.org/2000/svg" viewBox="0 0 15.04 14.96">
  <defs>
    <style>
      .cls-1 {
        fill: #ffcf01;
      }

      .cls-2 {
        fill: #8560a8;
      }
    </style>
  </defs>
  <g>
    <path class="cls-2" d="m7.63,2.15c-3.15,0-5.7,2.55-5.7,5.7s2.55,5.7,5.7,5.7,5.7-2.55,5.7-5.7-2.55-5.7-5.7-5.7Zm0,10.79c-2.82,0-5.1-2.28-5.1-5.1S4.81,2.75,7.63,2.75s5.1,2.28,5.1,5.1-2.28,5.1-5.1,5.1Z"/>
    <path class="cls-1" d="m13.83,7.27c0-.06-.01-.12-.02-.18.01-.06.42-.25.4-.34-.02-.12-.4-.18-.5-.29-.02-.09-.04-.18-.06-.27,0,0,0-.01,0-.02.07-.11.38-.29.35-.37-.03-.11-.37-.12-.51-.19-.06-.17-.03-.1-.09-.29,0,0,.29-.41.26-.46-.06-.11-.5,0-.55-.08-.05-.08-.09-.17-.14-.25-.03-.05.24-1.72.18-1.79-.08-.09-1.71.06-1.79,0-.08-.05-.15-.11-.23-.16-.05-.03.08-.49,0-.54-.11-.06-.42.21-.56.19-.06-.04-.13-.07-.19-.1-.02,0-.03-.02-.05-.02-.05-.1.02-.49-.05-.53-.11-.05-.35.23-.49.28-.09-.04-.06-.03-.22-.09,0,0-.12-.49-.18-.5-.12-.02-.32.39-.41.37-.09-.02-.19-.04-.28-.05C8.63,1.58,7.72,0,7.63,0c-.09,0-1.19,1.58-1.19,1.58-.15.06-.38.07-.41.07-.09-.09-.27-.36-.34-.33-.1.03-.12.33-.19.48-.11.04-.22.07-.33.12,0,0-.02,0-.02,0-.12-.09-.3-.31-.37-.28-.09.04-.07.33-.11.5,0,0,0,0,0,0-.21.1-.11.05-.31.15,0,0-.44-.24-.49-.19-.09.07.04.4.02.52-.1.07-.19.14-.29.21-.12-.04-1.78-.24-1.83-.18-.06.08.43,1.74.38,1.82-.05.08-.1.16-.14.25-.03.05-.49-.04-.53.04-.06.13.29.45.24.58-.03.07-.05.13-.08.2-.03.09-.5.03-.53.12-.04.13.36.4.33.54,0,.03-.01.05-.02.08-.03.09-.02.06-.07.23,0,0-.47.17-.47.24,0,.11.33.25.4.34-.01.11-.02.23-.02.34C1.2,7.48-.01,8.78,0,8.86c.02.13,1.55.98,1.66,1.03,0,.01,0,.02.01.03,0,.01,0,.02.01.03.03.08.06.17.1.25-.04.09-.34.34-.3.42.06.13.53.05.59.18.03.06.07.12.1.19.05.08-.3.42-.25.5.07.11.54-.03.62.08.03.05.07.09.1.13-.02.05-.18.47-.13.51.08.08.37-.07.5-.08.08.09.17.18.26.26-.02.12-.17,2.01-.1,2.06.09.06,2.06-.76,2.15-.73.09.03.18.07.27.1.05.02.05.5.14.52.13.04.38-.37.52-.34.07.01.14.03.21.04.09.02.12.5.22.51.12.02.28-.33.41-.41.16.02.09.02.29.04,0,0,.24.44.3.43.13-.01.21-.46.3-.47.09,0,.19-.01.28-.02.06,0,.24.43.34.42.12-.02.19-.41.3-.5.09-.02.18-.04.28-.06.1.06,1.63,1.01,1.69.98.11-.06.41-1.98.52-2.06.06-.04.11-.09.17-.13.07-.06.45.23.52.17.1-.09-.11-.54-.02-.63.09-.1.18-.2.27-.3.14.02.4.06.43.02.05-.07-.07-.25-.14-.39.09-.13.18-.26.26-.39.15.02.37.06.4,0,.05-.08-.09-.27-.16-.42.07-.13.13-.27.19-.4.15,0,.39.02.41-.04.04-.09-.14-.27-.24-.41,0-.02.01-.04.02-.05.02-.05.02-.05.08-.19,0,0,1.44-.96,1.45-1.05.01-.12-1.2-1.29-1.21-1.42ZM3.97,12.12s-.02-.02-.04-.03c0,0-.01-.01-.02-.02-.04-.04-.08-.07-.12-.11-.03-.03-.06-.06-.09-.09-.02-.02-.05-.04-.07-.07,0,0,0,0-.01-.01-.04-.04-.08-.09-.13-.13-.02-.02-.05-.05-.07-.08-.04-.04-.08-.09-.11-.13-.03-.03-.05-.06-.08-.09-.03-.03-.05-.06-.07-.1-.04-.05-.07-.09-.11-.14,0,0,0-.01-.01-.02-.55-.79-.9-1.71-1.02-2.67-.02-.16-.03-.32-.03-.48,0-.28,0-.55.04-.82.18-1.31.8-2.56,1.85-3.51,1.53-1.38,3.59-1.77,5.42-1.22.02,0,.04.01.06.02.01,0,.03,0,.04.01.39.13.76.29,1.11.5.52.32,1,.74,1.4,1.23,1.12,1.46,1.53,3.43.93,5.32-.63,1.98-2.21,3.37-4.07,3.83-.86.2-1.77.19-2.64-.03-.81-.23-1.54-.63-2.16-1.17Z"/>
  </g>
  <path class="cls-2" d="m8.69,5.17c1.52.64,2.07,2.29,1.51,3.63-.64,1.52-2.29,2.07-3.63,1.51-1.52-.64-2.07-2.29-1.51-3.63.64-1.52,2.29-2.07,3.63-1.51Zm-.15.36c-1.12-.47-2.55-.03-3.11,1.3-.47,1.12-.04,2.56,1.29,3.12,1.12.47,2.56.04,3.11-1.28.51-1.2-.02-2.6-1.3-3.13Z"/>
</svg>