<?xml version="1.0" encoding="UTF-8"?>
<svg id="Layer_1" data-name="Layer 1" xmlns="http://www.w3.org/2000/svg" viewBox="0 0 15.32 15.24">
  <defs>
    <style>
      .cls-1 {
        fill: #005895;
      }

      .cls-2 {
        fill: #ffcf01;
      }
    </style>
  </defs>
  <g>
    <path class="cls-1" d="m7.77,2.19c-3.2,0-5.8,2.6-5.8,5.8s2.6,5.8,5.8,5.8,5.8-2.6,5.8-5.8-2.6-5.8-5.8-5.8Zm0,10.99c-2.87,0-5.19-2.32-5.19-5.19S4.9,2.8,7.77,2.8s5.19,2.32,5.19,5.19-2.32,5.19-5.19,5.19Z"/>
    <path class="cls-2" d="m14.08,7.4c0-.06-.01-.12-.02-.18.01-.06.43-.26.41-.35-.02-.13-.41-.18-.51-.3-.02-.09-.04-.19-.06-.28,0,0,0-.01,0-.02.07-.11.38-.3.36-.38-.03-.11-.38-.12-.52-.19-.06-.17-.03-.1-.09-.29,0,0,.29-.41.26-.47-.07-.11-.51,0-.56-.08-.05-.08-.09-.17-.14-.25-.03-.05.24-1.76.18-1.82-.08-.09-1.74.06-1.82,0-.08-.06-.16-.12-.24-.17-.05-.03.09-.5,0-.55-.11-.07-.42.21-.57.2-.06-.04-.13-.07-.19-.1-.02,0-.03-.02-.05-.02-.05-.1.02-.5-.06-.54-.11-.05-.35.23-.5.29-.09-.04-.06-.03-.22-.1,0,0-.12-.5-.19-.51-.13-.02-.32.4-.42.38-.09-.02-.19-.04-.28-.05C8.79,1.61,7.86,0,7.77,0c-.1,0-1.21,1.6-1.21,1.6-.16.06-.38.07-.41.08-.09-.09-.27-.36-.35-.34-.11.03-.13.34-.2.49-.11.04-.22.08-.33.12,0,0-.02,0-.02,0-.12-.09-.3-.32-.37-.29-.09.04-.08.34-.11.51,0,0,0,0,0,0-.21.1-.12.05-.31.15,0,0-.44-.24-.5-.2-.09.07.04.41.02.53-.1.07-.2.14-.29.21-.12-.04-1.81-.24-1.86-.19-.07.08.44,1.77.39,1.86-.05.08-.1.17-.14.25-.03.05-.5-.04-.54.05-.06.13.3.45.24.59-.03.07-.05.13-.08.2-.03.09-.51.03-.54.12-.04.13.37.41.34.55,0,.03-.01.05-.02.08-.03.09-.02.06-.07.23,0,0-.48.17-.48.24,0,.12.34.25.41.35-.01.11-.02.23-.03.34C1.22,7.61-.01,8.94,0,9.02c.02.13,1.58,1,1.69,1.05,0,.01,0,.02.01.03,0,.01,0,.02.01.04.03.09.07.17.1.25-.04.09-.34.35-.3.43.06.13.53.06.6.18.03.06.07.13.11.19.05.08-.3.42-.25.5.07.12.55-.03.63.08.03.05.07.09.11.14-.02.05-.18.48-.13.52.08.08.38-.08.51-.08.08.09.17.18.26.26-.02.12-.17,2.05-.11,2.09.09.06,2.1-.78,2.19-.74.09.03.18.07.27.1.06.02.05.51.14.53.14.04.39-.38.53-.35.07.02.14.03.21.04.09.02.12.51.22.52.12.02.29-.34.42-.42.16.02.09.02.29.04,0,0,.24.45.31.44.13-.01.21-.47.31-.48.09,0,.19-.01.29-.02.06,0,.25.44.34.42.13-.02.19-.42.31-.51.09-.02.19-.04.28-.06.11.06,1.66,1.03,1.72,1,.11-.07.42-2.01.53-2.1.06-.04.11-.09.17-.13.07-.06.46.24.53.17.1-.09-.11-.55-.02-.64.1-.1.19-.2.28-.3.15.02.41.06.44.02.05-.07-.07-.26-.14-.39.09-.13.18-.26.26-.39.15.02.37.06.4,0,.05-.08-.09-.27-.16-.43.07-.13.13-.27.19-.41.16,0,.39.02.42-.04.04-.09-.15-.27-.24-.42,0-.02.01-.04.02-.05.02-.05.02-.05.08-.19,0,0,1.47-.97,1.48-1.07.01-.13-1.22-1.31-1.24-1.45Zm-10.03,4.94s-.02-.02-.04-.03c0,0-.01-.01-.02-.02-.04-.04-.08-.07-.12-.11-.03-.03-.06-.06-.09-.09-.02-.02-.05-.05-.07-.07,0,0,0,0-.01-.01-.04-.04-.09-.09-.13-.14-.02-.03-.05-.05-.07-.08-.04-.04-.08-.09-.11-.14-.03-.03-.05-.06-.08-.1-.03-.03-.05-.07-.07-.1-.04-.05-.07-.1-.11-.15,0,0,0-.01-.02-.02-.56-.8-.92-1.74-1.04-2.72-.02-.16-.03-.32-.03-.48,0-.28,0-.56.04-.84.18-1.33.81-2.61,1.88-3.57,1.56-1.4,3.65-1.8,5.51-1.24.02,0,.04.01.06.02.01,0,.03,0,.04.01.39.13.77.3,1.13.51.53.33,1.02.75,1.43,1.26,1.14,1.48,1.56,3.49.95,5.41-.64,2.01-2.26,3.44-4.15,3.9-.88.2-1.8.19-2.68-.03-.82-.23-1.57-.65-2.2-1.19Z"/>
  </g>
  <path class="cls-1" d="m6.3,10.98v-6.04h1.85c1.22,0,1.93.99,1.93,1.93,0,1.19-.92,1.97-1.9,1.97h-1.43v2.14h-.45Zm1.87-2.59c.71,0,1.46-.56,1.46-1.53,0-.7-.53-1.48-1.48-1.48h-1.4v3h1.42Z"/>
</svg>